# xmcd CD database file
#
# Track frame offsets:
#	150
#	20796
#	25187
#	52684
#	68674
#	91306
#	115249
#	133796
#	149680
#	168040
#	187987
#	208328
#
# Disc length: 3218 seconds
#
# Revision: 0
# Processed by: cddbd v1.5.2PL0 Copyright (c) Steve Scherf et al.
# Submitted via: CDex 1.51
#
DISCID=a60c900c
DTITLE=Avishai Cohen - Morenika
DYEAR=2009
DGENRE=Jazz
TTITLE0=Morenika
TTITLE1=Interlude in C# minor
TTITLE2=El Hatzipor
TTITLE3=Leolam
TTITLE4=Winter song
TTITLE5=It's been so long
TTITLE6=Alon Basela
TTITLE7=Still
TTITLE8=Shir Preda
TTITLE9=Aurora
TTITLE10=Alfonsina Y El Mar
TTITLE11=Noches Noches - La Luz
EXTD=YEAR: 2009
EXTT0=
EXTT1=
EXTT2=
EXTT3=
EXTT4=
EXTT5=
EXTT6=
EXTT7=
EXTT8=
EXTT9=
EXTT10=
EXTT11=
PLAYORDER=
